<?xml version="1.0" encoding="UTF-8"?>
<svg id="Layer_2" data-name="Layer 2" xmlns="http://www.w3.org/2000/svg" viewBox="0 0 100.87 100.32">
  <defs>
    <style>
      .cls-1 {
        fill: #fff;
      }
    </style>
  </defs>
  <g id="Capa_1" data-name="Capa 1">
    <g>
      <path class="cls-1" d="M67.62,83.69H33.25v-3.33h34.36v3.33Zm-.94-5.54H33.55l6.72-45.45h19.22l7.19,45.45Zm-15.59-37.69c0,.66,.54,1.11,1.2,1.11h3.61c.66,0,1.2-.44,1.2-1.11s-.54-1.11-1.2-1.11h-3.61c-.67,0-1.2,.44-1.2,1.11Zm-3.61,4.43c0,.66,.54,1.11,1.2,1.11h3.61c.66,0,1.2-.44,1.2-1.11s-.54-1.11-1.2-1.11h-3.61c-.66,0-1.2,.45-1.2,1.11h0Zm-6.01,17.74h2.4c.66,0,1.2-.44,1.2-1.11s-.54-1.11-1.2-1.11h-2.4c-.67,0-1.2,.45-1.2,1.11s.54,1.11,1.2,1.11Zm6.01,2.22c0-.66-.54-1.11-1.2-1.11h-2.4c-.66,0-1.2,.45-1.2,1.11s.54,1.11,1.2,1.11h2.4c.66,0,1.2-.45,1.2-1.11Zm2.4-3.32c0-.66-.54-1.11-1.2-1.11h-1.2c-.66,0-1.2,.45-1.2,1.11s.54,1.11,1.2,1.11h1.2c.66,0,1.2-.44,1.2-1.11Zm4.81-12.19c0-.66-.54-1.11-1.2-1.11h-2.4c-.67,0-1.2,.44-1.2,1.11s.54,1.11,1.2,1.11h2.4c.66,0,1.2-.45,1.2-1.11Zm.35-4c.23,.21,.54,.35,.85,.35s.62-.13,.86-.35c.22-.23,.35-.54,.35-.85s-.13-.62-.35-.85c-.46-.44-1.26-.44-1.71,0-.22,.23-.35,.53-.35,.85,0,.31,.13,.62,.35,.85Zm5.66,28.39c0-.66-.54-1.11-1.2-1.11h-2.4c-.66,0-1.2,.44-1.2,1.11s.54,1.11,1.2,1.11h2.4c.66,0,1.2-.45,1.2-1.11Zm-.84-43.23v-8.87h-19.95v8.87h19.95Zm1.11-13.3h-22.17v2.22h22.17v-2.22Zm7.79,69.84H32.67l-3.25,6.65h42.59l-3.25-6.65Zm-41.04,13.3h45.45v-4.43H27.71v4.43h0ZM61.75,14.96l-10.76-8.77V1.2c0-.66-.44-1.2-1.11-1.2s-1.11,.54-1.11,1.2V6.09l-10.93,8.88h23.91Z"/>
      <path class="cls-1" d="M34.26,26.05h-6.01c-.66,0-1.2-.44-1.2-1.11s.54-1.11,1.2-1.11h6.01c.66,0,1.2,.45,1.2,1.11s-.54,1.11-1.2,1.11Zm1.96-5.18c.23-.62-.1-1.31-.73-1.54l-6.25-2.24c-.62-.22-1.31,.1-1.54,.72-.22,.62,.1,1.31,.73,1.54l6.25,2.25c.13,.05,.27,.07,.41,.07,.49,0,.95-.3,1.13-.79h0Zm-6.98,11.62l6.25-2.24c.62-.22,.95-.91,.73-1.54-.22-.63-.91-.95-1.54-.73l-6.25,2.25c-.62,.22-.95,.91-.73,1.54,.18,.49,.64,.8,1.13,.8,.13,0,.27-.02,.41-.07h0Zm43.48-7.55c0-.66-.54-1.11-1.2-1.11h-6.01c-.66,0-1.2,.45-1.2,1.11s.54,1.11,1.2,1.11h6.01c.66,0,1.2-.44,1.2-1.11Zm-7.87-3.34l6.25-2.24c.62-.23,.95-.91,.72-1.54-.22-.63-.92-.95-1.54-.73l-6.25,2.24c-.62,.23-.95,.91-.73,1.54,.18,.49,.64,.79,1.13,.79,.13,0,.27-.02,.41-.07h0Zm6.98,10.17c.22-.62-.1-1.31-.73-1.54l-6.25-2.25c-.62-.22-1.31,.1-1.54,.72-.22,.62,.1,1.31,.73,1.54l6.25,2.24c.13,.05,.27,.07,.41,.07,.49,0,.96-.31,1.13-.8h0Z"/>
      <path class="cls-1" d="M19.65,96.03c-.35-.52-.93-1.25-1.56-1.25h0c-.63,0-1.21,.52-1.56,1.05-.69,1.04-2.37,1.96-3.47,1.84-1.13-.13-2.15-.89-2.78-1.84-.35-.52-.93-1.04-1.56-1.04h0c-.63,0-1.13,.59-1.56,1.05-3.51,3.74-7.15-.62-7.15-.82v3.4c1.11,.96,2.51,1.52,4,1.52,1.85,0,3.6-.81,4.72-2.22,1.12,1.42,2.84,2.3,4.68,2.3s3.57-.73,4.69-2.14c2.6,2.59,5.43,2.39,7.4,1.55v-2.55c-1.55,1.3-4.23,1.55-5.84-.84h0Z"/>
      <path class="cls-1" d="M27.92,87.02c-.43-.02-.91,.33-1.18,.9-1.03,2.2-4.75,3.35-6.78,.35-.35-.52-.93-1.25-1.56-1.25h0c-.63,0-1.21,.52-1.56,1.05-.69,1.04-2.38,1.96-3.47,1.84-1.13-.13-2.15-.9-2.78-1.84-.35-.52-.93-1.04-1.56-1.04h0c-.63,0-1.16,.56-1.56,1.05-3.49,4.32-7.47-.87-7.47-.99v3.15c1.11,1.22,2.67,1.95,4.37,1.95,1.85,0,3.55-.81,4.67-2.22,1.12,1.42,2.83,2.3,4.68,2.3s3.57-.73,4.68-2.14c3.96,3.96,8.5,1.41,9.62,0,.03,.03,.06,.06,.08,.09l1.14-2c-.33-.51-.75-1.15-1.33-1.18h0Z"/>
      <path class="cls-1" d="M81.44,96.03c.35-.52,1.15-1.25,1.78-1.25h0c.63,0,1.21,.52,1.56,1.05,.69,1.04,2.37,1.96,3.47,1.84,1.13-.13,2.15-.89,2.78-1.84,.35-.52,.93-1.04,1.56-1.04h0c.63,0,.91,.59,1.34,1.05,3.51,3.74,6.94-.62,6.94-.82v3.4c-1.11,.96-2.29,1.52-3.78,1.52-1.85,0-3.49-.81-4.61-2.22-1.12,1.42-2.78,2.3-4.63,2.3s-3.76-.73-4.88-2.14c-2.6,2.59-5.38,2.39-7.59,1.55v-2.55c2.22,1.3,4.44,1.55,6.06-.84h0Z"/>
      <path class="cls-1" d="M73.38,87.02c.43-.02,.91,.33,1.18,.9,1.03,2.2,4.75,3.35,6.79,.35,.35-.52,.93-1.25,1.56-1.25h0c.63,0,1.21,.52,1.56,1.05,.68,1.04,2.37,1.96,3.47,1.84,1.13-.13,2.15-.9,2.78-1.84,.35-.52,.93-1.04,1.56-1.04h0c.63,0,.95,.56,1.34,1.05,3.49,4.32,7.26-.87,7.26-.99v3.15c-1.11,1.22-2.46,1.95-4.16,1.95-1.85,0-3.45-.81-4.57-2.22-1.12,1.42-2.78,2.3-4.62,2.3s-3.54-.73-4.66-2.14c-3.96,3.96-8.49,1.41-9.61,0-.03,.03-.05,.06-.08,.09l-1.14-2c.33-.51,.75-1.15,1.33-1.18h0Z"/>
    </g>
  </g>
</svg>